<?xml version="1.0" standalone="no"?>
<!DOCTYPE svg PUBLIC "-//W3C//DTD SVG 20010904//EN"
 "http://www.w3.org/TR/2001/REC-SVG-20010904/DTD/svg10.dtd">
<svg version="1.0" xmlns="http://www.w3.org/2000/svg"
 width="201.000000pt" height="180.000000pt" viewBox="0 0 201.000000 180.000000"
 preserveAspectRatio="xMidYMid meet">

<g transform="translate(0.000000,180.000000) scale(0.100000,-0.100000)"
fill="#000000" stroke="none">
<path d="M640 1681 c0 -28 29 -39 45 -18 16 22 30 21 85 -4 55 -25 105 -71
131 -121 25 -49 24 -55 -8 -63 -16 -4 -34 -11 -40 -17 -20 -16 -16 -98 7 -141
l21 -38 -21 -26 c-11 -14 -20 -32 -20 -39 0 -24 -15 -16 -78 41 -38 35 -71 76
-88 111 -24 49 -26 62 -21 129 4 60 3 75 -8 75 -20 0 -38 -76 -32 -132 11 -87
65 -167 170 -252 26 -21 47 -47 47 -57 0 -24 24 -25 112 -2 64 17 72 17 135 0
89 -23 113 -22 113 2 0 10 21 36 48 57 107 87 160 167 169 259 6 58 -11 125
-32 125 -11 0 -12 -16 -8 -75 5 -67 3 -80 -21 -129 -17 -35 -50 -76 -88 -111
-63 -57 -78 -65 -78 -41 0 7 -9 25 -20 39 l-21 26 21 38 c37 70 22 135 -36
149 -29 7 -30 23 -5 72 26 50 76 96 131 121 55 25 69 26 85 4 16 -21 45 -10
45 18 0 19 -4 21 -37 15 -111 -20 -204 -80 -244 -158 -16 -31 -24 -38 -37 -32
-22 10 -82 10 -104 0 -13 -6 -21 1 -37 32 -40 78 -133 138 -243 158 -34 6 -38
4 -38 -15z"/>
<path d="M800 973 c-102 -84 -141 -130 -180 -209 -26 -53 -33 -79 -33 -128 1
-66 26 -140 46 -133 14 5 13 24 -3 85 -22 88 17 181 119 283 l66 67 65 -14
c36 -7 94 -14 130 -14 36 0 94 7 130 14 l65 14 66 -67 c102 -102 141 -195 119
-283 -16 -61 -17 -80 -3 -85 20 -7 45 67 46 133 0 114 -77 229 -238 359 l-50
41 -68 -8 c-38 -5 -99 -5 -135 0 l-67 8 -75 -63z"/>
<path d="M1185 822 c-80 -29 -269 -26 -382 4 -22 6 -23 4 -23 -49 l0 -55 73
-18 c94 -24 240 -24 325 1 l62 18 0 53 c0 29 -3 55 -7 57 -5 2 -26 -3 -48 -11z"/>
<path d="M805 578 c4 -12 15 -41 25 -64 21 -49 41 -54 190 -53 146 2 151 4
178 73 13 32 22 60 19 62 -2 2 -35 -3 -73 -11 -102 -22 -230 -17 -327 12 -16
4 -18 1 -12 -19z"/>
<path d="M920 342 c0 -5 61 -95 78 -115 14 -16 18 -12 59 48 23 35 43 66 43
67 0 2 -40 3 -90 3 -49 0 -90 -1 -90 -3z"/>
</g>
</svg>
